<svg width="1920" height="528" fill="none" xmlns="http://www.w3.org/2000/svg"><path d="M1231.27 120.893L1160 200" stroke="url(#paint0_linear_8517_68)" stroke-width="2"/><path d="M1020 154c-32.539 0-59-26.461-59-59s26.461-59 59-59c32.54 0 59 26.461 59 59 0 32.718-26.46 59-59 59z" stroke="url(#paint1_linear_8517_68)" stroke-width="2"/><path d="M689.082 341.972h0l.005-.008c.749-1.248 2.537-1.331 3.454.025l46.12 75.364.005.008c.915 1.465-.146 3.367-1.729 3.367h-92.262c-1.577 0-2.657-1.777-1.719-3.383l46.126-75.373z" stroke="url(#paint2_linear_8517_68)" stroke-width="2"/><path d="M327.996 105.819l-.019.018-.019.019-28.076 28.076c-2.17 2.17-2.17 5.966 0 8.136l28.076 28.076c1.389 1.389 1.389 3.92 0 5.309l-25.505 25.505c-1.389 1.389-3.92 1.389-5.309 0l-28.076-28.076c-2.17-2.17-5.966-2.17-8.136 0l-28.076 28.076c-1.389 1.389-3.92 1.389-5.309 0l-25.505-25.505c-1.389-1.389-1.389-3.92 0-5.309l28.076-28.076c2.17-2.17 2.17-5.966 0-8.136l-28.076-28.076c-1.389-1.389-1.389-3.92 0-5.309l25.505-25.505c1.389-1.39 3.92-1.39 5.309 0l28.076 28.076c2.17 2.17 5.966 2.17 8.136 0l28.076-28.076c1.389-1.39 3.92-1.39 5.309 0l25.505 25.505c1.609 1.609 1.552 3.91.038 5.272z" stroke="url(#paint3_linear_8517_68)" stroke-width="2"/><path d="M158.916 491.432L240 406.348h257V360" stroke="url(#paint4_linear_8517_68)" stroke-width="2"/><path d="M1534 260v140l126.59 126.589" stroke="url(#paint5_linear_8517_68)" stroke-width="2"/><path d="M1528.36 133.396l-.02.018-.01.019-18.3 18.3c-1.55 1.551-1.55 4.246 0 5.796l18.3 18.301c.77.769.77 2.198 0 2.967l-16.63 16.626c-.77.769-2.2.769-2.97 0l-18.3-18.301c-1.55-1.55-4.24-1.55-5.79 0l-18.3 18.301c-.77.769-2.2.769-2.97 0l-16.63-16.626c-.77-.769-.77-2.198 0-2.967l18.3-18.301c1.55-1.55 1.55-4.245 0-5.796l-18.3-18.3c-.77-.77-.77-2.199 0-2.968l16.63-16.625c.77-.77 2.2-.77 2.97 0l18.3 18.3c1.55 1.551 4.24 1.551 5.79 0l18.3-18.3c.77-.77 2.2-.77 2.97 0l16.63 16.625c.92.92.86 2.188.03 2.931z" stroke="url(#paint6_linear_8517_68)" stroke-width="2"/><path d="M808.032 229.024h309.378" stroke="url(#paint7_linear_8517_68)" stroke-width="2"/><defs><linearGradient id="paint0_linear_8517_68" x1="1238.08" y1="120.893" x2="1238.08" y2="238.184" gradientUnits="userSpaceOnUse"><stop stop-color="#F7941D"/><stop offset="1" stop-color="#27AAE1"/></linearGradient><linearGradient id="paint1_linear_8517_68" x1="960" y1="95" x2="1080" y2="95" gradientUnits="userSpaceOnUse"><stop stop-color="#F7941D"/><stop offset="1" stop-color="#27AAE1"/></linearGradient><linearGradient id="paint2_linear_8517_68" x1="641.612" y1="380.864" x2="740" y2="380.864" gradientUnits="userSpaceOnUse"><stop stop-color="#F7941D"/><stop offset="1" stop-color="#27AAE1"/></linearGradient><linearGradient id="paint3_linear_8517_68" x1="200" y1="138" x2="330.148" y2="138" gradientUnits="userSpaceOnUse"><stop stop-color="#F7941D"/><stop offset="1" stop-color="#27AAE1"/></linearGradient><linearGradient id="paint4_linear_8517_68" x1="158.916" y1="491.432" x2="158.916" y2="360" gradientUnits="userSpaceOnUse"><stop stop-color="#F7941D"/><stop offset="1" stop-color="#27AAE1"/></linearGradient><linearGradient id="paint5_linear_8517_68" x1="1534" y1="526.589" x2="1534" y2="260" gradientUnits="userSpaceOnUse"><stop stop-color="#F7941D"/><stop offset="1" stop-color="#27AAE1"/></linearGradient><linearGradient id="paint6_linear_8517_68" x1="1445.17" y1="154.631" x2="1530" y2="154.631" gradientUnits="userSpaceOnUse"><stop stop-color="#F7941D"/><stop offset="1" stop-color="#27AAE1"/></linearGradient><linearGradient id="paint7_linear_8517_68" x1="808.032" y1="229.524" x2="1117.41" y2="229.525" gradientUnits="userSpaceOnUse"><stop stop-color="#F7941D"/><stop offset="1" stop-color="#27AAE1"/></linearGradient></defs></svg>