<svg width="29" height="29" fill="none" xmlns="http://www.w3.org/2000/svg"><path fill-rule="evenodd" clip-rule="evenodd" d="M2.64 25.776a.483.483 0 00.587.596l5.568-1.454a12.083 12.083 0 005.75 1.457h.006c6.629 0 12.032-5.372 12.032-11.976 0-3.2-1.25-6.211-3.52-8.472a11.983 11.983 0 00-8.512-3.51c-6.63 0-12.033 5.372-12.033 11.976 0 2.101.554 4.165 1.608 5.985L2.64 25.776zm8.097-17.112c.221.006.466.018.7.535.154.345.415.98.627 1.496.165.402.3.733.335.8.078.155.125.334.024.542a12.62 12.62 0 00-.034.07c-.082.17-.14.29-.277.448l-.174.206a5.1 5.1 0 01-.292.335c-.156.155-.317.322-.138.63.18.31.807 1.328 1.734 2.149a8.032 8.032 0 002.3 1.449c.085.037.154.066.204.091.311.155.496.131.676-.077.179-.208.777-.904.986-1.213.203-.31.412-.262.7-.155.286.107 1.816.856 2.127 1.011l.172.084c.217.104.364.174.426.28.078.13.078.749-.18 1.475-.262.725-1.53 1.421-2.103 1.475a6.746 6.746 0 00-.164.018c-.526.064-1.194.145-3.572-.791-2.931-1.153-4.866-4.012-5.257-4.59a3.223 3.223 0 00-.063-.093l-.007-.008c-.178-.239-1.266-1.695-1.266-3.198 0-1.438.708-2.187 1.031-2.528l.057-.06c.286-.31.621-.387.83-.387.21 0 .419 0 .598.006z" fill="#323B48"/></svg>